<svg width="75" height="74" viewBox="0 0 75 74" fill="none" xmlns="http://www.w3.org/2000/svg">
<path d="M72.6914 70.9143C73.5197 70.9144 74.1914 71.586 74.1914 72.4143C74.1914 73.2427 73.5197 73.9142 72.6914 73.9143H1.92773C1.09931 73.9143 0.427734 73.2427 0.427734 72.4143C0.427734 71.5859 1.09931 70.9143 1.92773 70.9143H72.6914Z" fill="#672F8F"/>
<path d="M31.9648 27.6455C31.9648 24.4862 29.4037 21.9248 26.2441 21.9248C23.0848 21.9248 20.5234 24.4861 20.5234 27.6455C20.5235 30.805 23.0847 33.3662 26.2441 33.3662C29.4036 33.3662 31.9648 30.805 31.9648 27.6455ZM34.9648 27.6455C34.9648 32.4618 31.0605 36.3662 26.2441 36.3662C21.4278 36.3662 17.5235 32.4618 17.5234 27.6455C17.5234 22.8291 21.428 18.9248 26.2441 18.9248C31.0605 18.9248 34.9648 22.8293 34.9648 27.6455Z" fill="#672F8F"/>
<path d="M21.1338 21.3921V8.87158C21.1338 4.05584 25.0388 0.150903 29.8545 0.150879C30.6829 0.150879 31.3545 0.822452 31.3545 1.65088V21.3921C31.3545 22.2205 30.6829 22.8921 29.8545 22.8921C29.0261 22.8921 28.3545 22.2205 28.3545 21.3921V3.3501C25.923 4.00934 24.1338 6.23176 24.1338 8.87158V21.3921C24.1338 22.2205 23.4622 22.8921 22.6338 22.8921C21.8054 22.8921 21.1338 22.2205 21.1338 21.3921Z" fill="#672F8F"/>
<path d="M18.2733 26.3467C18.9907 25.9325 19.9079 26.1782 20.3222 26.8956C20.7364 27.613 20.4908 28.5302 19.7733 28.9444L4.14933 37.9649C5.93529 39.7412 8.75356 40.1807 11.0409 38.8604L21.8837 32.5997C22.6011 32.1854 23.5193 32.4311 23.9335 33.1485C24.3477 33.8659 24.1011 34.7831 23.3837 35.1973L12.5409 41.4581C8.36908 43.8665 3.03588 42.4364 0.628817 38.2657C0.214933 37.5483 0.460374 36.631 1.17765 36.2169L18.2733 26.3467Z" fill="#672F8F"/>
<path d="M28.5558 33.1488C28.97 32.4314 29.8872 32.1857 30.6046 32.5999L42.0528 39.2093C42.7702 39.6236 43.0159 40.5417 42.6017 41.2591C42.1874 41.9762 41.2701 42.2218 40.5528 41.808L29.1046 35.1976C28.3872 34.7833 28.1415 33.8662 28.5558 33.1488Z" fill="#672F8F"/>
<path d="M32.1661 26.8956C32.5803 26.1782 33.4975 25.9326 34.2149 26.3467L42.3702 31.0547C43.0875 31.469 43.3332 32.3862 42.919 33.1036C42.5048 33.821 41.5876 34.0666 40.8702 33.6524L32.7149 28.9444C31.9975 28.5302 31.7519 27.613 32.1661 26.8956Z" fill="#672F8F"/>
<path d="M29.7308 32.3797C30.5536 32.2844 31.2985 32.8743 31.3939 33.6971L31.4008 33.7586L31.4017 33.7665L35.6771 72.2489C35.7242 72.6729 35.5886 73.097 35.3041 73.4149C35.0196 73.7326 34.6134 73.9139 34.1869 73.9139H18.3011C17.8745 73.9139 17.4675 73.7328 17.183 73.4149C16.8986 73.0971 16.7629 72.6728 16.8099 72.2489L21.0863 33.7665L21.0873 33.7596L21.0941 33.6971C21.1896 32.8743 21.9343 32.2844 22.7572 32.3797C23.5801 32.4752 24.17 33.2199 24.0746 34.0428L24.0677 34.1044L24.0668 34.1034L19.9779 70.9139H32.5101L28.4203 34.1034V34.1044L28.4135 34.0428C28.318 33.2199 28.9079 32.4752 29.7308 32.3797Z" fill="#672F8F"/>
<path d="M47.7236 37.0325C47.7236 36.0666 47.8749 35.1331 48.1562 34.2561C48.4093 33.4673 49.2542 33.0324 50.043 33.2854C50.8317 33.5385 51.2657 34.3834 51.0127 35.1721C50.8252 35.7564 50.7236 36.3812 50.7236 37.0325C50.7236 40.3914 53.4469 43.1145 56.8057 43.1145H59.6934C60.5218 43.1145 61.1934 43.7861 61.1934 44.6145C61.1933 45.4429 60.5217 46.1145 59.6934 46.1145H56.8057C51.7899 46.1145 47.7236 42.0481 47.7236 37.0325Z" fill="#FFCF06"/>
<path d="M62.8877 37.0327C62.8877 33.674 60.1644 30.9508 56.8057 30.9507H52.834C52.0056 30.9507 51.334 30.2791 51.334 29.4507C51.334 28.6223 52.0056 27.9507 52.834 27.9507H56.8057C61.8212 27.9508 65.8877 32.0171 65.8877 37.0327C65.8877 38.2548 65.6448 39.4243 65.2041 40.4927C64.8882 41.2585 64.0109 41.623 63.2451 41.3071C62.4797 40.9911 62.115 40.1147 62.4307 39.3491C62.7243 38.6373 62.8877 37.8557 62.8877 37.0327Z" fill="#FFCF06"/>
<path d="M54.3008 25.8631C54.8866 25.2774 55.8361 25.2774 56.4219 25.8631C57.0076 26.4489 57.0076 27.3985 56.4219 27.9842L54.9551 29.451L56.4219 30.9178C57.0075 31.5037 57.0076 32.4532 56.4219 33.0389C55.8361 33.6246 54.8866 33.6245 54.3008 33.0389L51.7734 30.5116C51.4922 30.2304 51.3341 29.8487 51.334 29.451C51.334 29.0533 51.4922 28.6718 51.7734 28.3905L54.3008 25.8631Z" fill="#FFCF06"/>
<path d="M56.1063 41.0265C56.6921 40.4407 57.6416 40.4407 58.2274 41.0265L60.7548 43.5538C61.0361 43.8351 61.1942 44.2166 61.1942 44.6144C61.1942 45.0122 61.0361 45.3936 60.7548 45.6749L58.2274 48.2023C57.6417 48.7879 56.6921 48.7879 56.1063 48.2023C55.5206 47.6165 55.5207 46.667 56.1063 46.0812L57.5731 44.6144L56.1063 43.1476C55.5205 42.5618 55.5205 41.6123 56.1063 41.0265Z" fill="#FFCF06"/>
<path d="M71.1914 37.0327C71.1914 29.0878 64.7506 22.647 56.8057 22.647C48.8607 22.647 42.4199 29.0877 42.4199 37.0327C42.42 44.9777 48.8607 51.4185 56.8057 51.4185C64.7506 51.4184 71.1914 44.9776 71.1914 37.0327ZM74.1914 37.0327C74.1914 46.6345 66.4074 54.4184 56.8057 54.4185C47.2038 54.4185 39.42 46.6345 39.4199 37.0327C39.4199 27.4309 47.2038 19.647 56.8057 19.647C66.4075 19.647 74.1914 27.4309 74.1914 37.0327Z" fill="#672F8F"/>
<path d="M62.582 0.150879C63.4105 0.150879 64.082 0.822452 64.082 1.65088C64.082 2.47931 63.4105 3.15088 62.582 3.15088H46.6963C45.8679 3.15088 45.1963 2.47931 45.1963 1.65088C45.1963 0.822452 45.8679 0.150879 46.6963 0.150879H62.582Z" fill="#FFCF06"/>
<path d="M56.8047 5.92749L56.958 5.9353C57.7146 6.0119 58.3047 6.65068 58.3047 7.42749C58.3047 8.2043 57.7146 8.84308 56.958 8.91968L56.8047 8.92749H36.5869C35.7585 8.92749 35.0869 8.25592 35.0869 7.42749C35.0869 6.59906 35.7585 5.92749 36.5869 5.92749H56.8047Z" fill="#FFCF06"/>
<path d="M62.583 11.7041C63.4112 11.7043 64.083 12.3758 64.083 13.2041C64.083 14.0324 63.4112 14.7039 62.583 14.7041H51.0293C50.2009 14.7041 49.5293 14.0325 49.5293 13.2041C49.5293 12.3757 50.2009 11.7041 51.0293 11.7041H62.583Z" fill="#FFCF06"/>
<path d="M72.6914 5.92749C73.5198 5.92755 74.1914 6.5991 74.1914 7.42749C74.1914 8.25588 73.5198 8.92743 72.6914 8.92749H64.0264C63.1979 8.92749 62.5264 8.25592 62.5264 7.42749C62.5264 6.59906 63.1979 5.92749 64.0264 5.92749H72.6914Z" fill="#FFCF06"/>
<path d="M31.1387 43.4756C31.9671 43.4756 32.6387 44.1472 32.6387 44.9756C32.6387 45.804 31.9671 46.4756 31.1387 46.4756H21.3506C20.5222 46.4756 19.8506 45.804 19.8506 44.9756C19.8506 44.1472 20.5222 43.4756 21.3506 43.4756H31.1387Z" fill="#672F8F"/>
</svg>
