<svg width="78" height="78" viewBox="0 0 78 78" fill="none" xmlns="http://www.w3.org/2000/svg">
<path d="M74.4756 38.7373C74.4753 19.0001 58.4746 3 38.7373 3C19.0003 3.00026 3.00026 19.0003 3 38.7373C3 58.4746 19.0001 74.4753 38.7373 74.4756C58.4747 74.4756 74.4756 58.4747 74.4756 38.7373ZM77.4756 38.7373C77.4756 60.1316 60.1316 77.4756 38.7373 77.4756C17.3432 77.4753 0 60.1314 0 38.7373C0.000263323 17.3434 17.3434 0.000263289 38.7373 0C60.1314 0 77.4753 17.3432 77.4756 38.7373Z" fill="#672F8F"/>
<path d="M49.5012 21.9131L49.6545 21.9209C50.4109 21.9976 51.0012 22.6364 51.0012 23.4131V27.5684H54.2443C55.0727 27.5684 55.7442 28.24 55.7443 29.0684V36.8691C55.7442 37.309 55.5511 37.7268 55.216 38.0117C54.8808 38.2966 54.4373 38.4195 54.0031 38.3486L38.4855 35.8184C37.668 35.685 37.1132 34.9142 37.2463 34.0967C37.3796 33.2791 38.1504 32.7242 38.968 32.8574L52.7443 35.1045V30.5684H49.5012C48.6728 30.5683 48.0012 29.8967 48.0012 29.0684V24.9131H38.7375C37.9092 24.913 37.2375 24.2414 37.2375 23.4131C37.2375 22.5847 37.9092 21.9132 38.7375 21.9131H49.5012Z" fill="#FFCF06"/>
<path d="M21.7314 36.9131V29.0684C21.7315 28.24 22.4031 27.5684 23.2314 27.5684H26.292V23.4131C26.292 22.5848 26.9637 21.9132 27.792 21.9131H38.7383C39.5667 21.9131 40.2383 22.5847 40.2383 23.4131C40.2383 24.2415 39.5667 24.9131 38.7383 24.9131H29.292V29.0684C29.292 29.8968 28.6204 30.5684 27.792 30.5684H24.7314V36.9131C24.7314 37.7415 24.0599 38.4131 23.2314 38.4131C22.403 38.4131 21.7314 37.7415 21.7314 36.9131Z" fill="#FFCF06"/>
<path d="M41.291 16.6228C42.1194 16.6228 42.791 17.2944 42.791 18.1228V23.4138C42.7908 24.242 42.1193 24.9138 41.291 24.9138H36.7305C35.9022 24.9138 35.2307 24.242 35.2305 23.4138V18.1228C35.2305 17.2944 35.902 16.6228 36.7305 16.6228H41.291ZM38.2305 21.9138H39.791V19.6228H38.2305V21.9138Z" fill="#FFCF06"/>
<path d="M49.502 27.5686C50.3302 27.5688 51.002 28.2403 51.002 29.0686C51.002 29.8969 50.3302 30.5684 49.502 30.5686H27.792C26.9636 30.5686 26.292 29.897 26.292 29.0686C26.292 28.2402 26.9636 27.5686 27.792 27.5686H49.502Z" fill="#FFCF06"/>
<path d="M38.6075 32.8564C38.738 32.845 38.8697 32.8502 38.9991 32.873L58.004 36.2314C58.5241 36.3234 58.9571 36.682 59.1446 37.1758C59.3321 37.6695 59.2469 38.2256 58.919 38.6396L47.3487 53.2441C46.8343 53.8931 45.8915 54.0023 45.2423 53.4883C44.5929 52.9739 44.4828 52.0302 44.9971 51.3809L55.005 38.748L38.7374 35.874L22.462 38.748L30.9034 49.4102C31.4176 50.0597 31.3088 51.0033 30.6593 51.5176C30.0098 52.0318 29.0661 51.9218 28.5518 51.2725L18.5499 38.6396C18.222 38.2255 18.1357 37.6686 18.3233 37.1748C18.511 36.6812 18.9449 36.3223 19.4649 36.2305L38.4776 32.873L38.6075 32.8564Z" fill="#FFCF06"/>
<path d="M36.8193 51.0183V53.1648L36.6787 53.1541C35.806 53.0237 34.6459 51.7431 33.5479 50.7058L36.8193 51.0183ZM39.5723 51.281C38.5623 52.2253 37.5542 53.1648 36.8193 53.1648V51.0183L39.5723 51.281ZM42.3623 49.364C43.2594 49.364 44.5049 50.7636 45.6758 51.864L39.5723 51.281C40.5944 50.3253 41.6186 49.3641 42.3623 49.364ZM31.4404 49.364C32.0324 49.3642 32.7743 49.9751 33.5479 50.7058L29.7266 50.3416C30.3558 49.7831 30.9502 49.364 31.4404 49.364Z" fill="#FFCF06"/>
<path d="M52.2676 47.864C53.19 47.864 53.9765 48.4095 54.4453 48.7742C54.9827 49.1921 55.5334 49.7319 56.0039 50.1902C56.5085 50.6817 56.9328 51.0919 57.3115 51.3865C57.5531 51.5743 57.6852 51.6409 57.7266 51.6619C58.18 51.6486 58.5273 51.5246 58.7236 51.3972C58.7765 51.3629 58.8089 51.3344 58.8291 51.3152C58.8864 50.5391 59.5335 49.9275 60.3242 49.9275C61.1526 49.9276 61.8242 50.5991 61.8242 51.4275C61.8241 52.5836 61.1031 53.4292 60.3564 53.9138C59.5953 54.4078 58.6334 54.6648 57.6475 54.6648C56.7251 54.6648 55.9386 54.1193 55.4697 53.7546C54.9324 53.3367 54.3816 52.7969 53.9111 52.3386C53.4066 51.8471 52.9822 51.4369 52.6035 51.1423C52.4483 51.0216 52.3373 50.9523 52.2676 50.9119C52.1978 50.9524 52.0873 51.022 51.9326 51.1423C51.5539 51.4369 51.1296 51.847 50.625 52.3386C50.1544 52.7971 49.603 53.3366 49.0654 53.7546C48.5965 54.1193 47.8109 54.6647 46.8887 54.6648C45.9663 54.6648 45.1798 54.1193 44.7109 53.7546C44.1736 53.3367 43.6228 52.797 43.1523 52.3386C42.6478 51.8471 42.2234 51.4369 41.8447 51.1423C41.6853 51.0183 41.5723 50.9488 41.5029 50.9089C41.4288 50.9498 41.3059 51.0228 41.1289 51.156C40.7325 51.4543 40.2865 51.8694 39.7617 52.3601C39.2705 52.8194 38.7007 53.3552 38.1504 53.7693C37.6721 54.1292 36.8778 54.6648 35.9658 54.6648C35.0436 54.6646 34.2579 54.1192 33.7891 53.7546C33.2516 53.3366 32.7 52.797 32.2295 52.3386C31.7251 51.8473 31.3014 51.4368 30.9229 51.1423C30.7678 51.0218 30.6567 50.9524 30.5869 50.9119C30.5172 50.9524 30.4069 51.0218 30.252 51.1423C29.8732 51.4369 29.449 51.847 28.9443 52.3386C28.4738 52.797 27.9223 53.3366 27.3848 53.7546C26.9158 54.1193 26.1295 54.6648 25.207 54.6648C24.2848 54.6646 23.4991 54.1192 23.0303 53.7546C22.4928 53.3366 21.9412 52.797 21.4707 52.3386C20.9663 51.8472 20.5426 51.4368 20.1641 51.1423C19.919 50.9517 19.7864 50.8859 19.7471 50.866C19.2946 50.8795 18.948 51.0035 18.752 51.1306C18.6992 51.1648 18.6657 51.1924 18.6455 51.2117C18.589 51.9885 17.9426 52.6013 17.1514 52.6013C16.3229 52.6013 15.6514 51.9297 15.6514 51.1013C15.6514 49.945 16.3723 49.0997 17.1191 48.615C17.8804 48.121 18.8421 47.864 19.8281 47.864C20.7505 47.864 21.536 48.4095 22.0049 48.7742C22.5423 49.1922 23.0939 49.7318 23.5645 50.1902C24.0691 50.6818 24.4934 51.0919 24.8721 51.3865C25.0266 51.5067 25.1372 51.5754 25.207 51.616C25.2768 51.5755 25.3879 51.5071 25.543 51.3865C25.9217 51.0919 26.346 50.6818 26.8506 50.1902C27.3211 49.7318 27.8727 49.1922 28.4102 48.7742C28.879 48.4095 29.6645 47.864 30.5869 47.864L30.7578 47.8699C31.6061 47.931 32.324 48.4322 32.7637 48.7742C33.3012 49.1922 33.8527 49.7318 34.3232 50.1902C34.8279 50.6818 35.2522 51.0919 35.6309 51.3865C35.7891 51.5095 35.9012 51.5788 35.9707 51.6189C36.0447 51.5782 36.168 51.5056 36.3457 51.3718C36.7421 51.0735 37.1882 50.6593 37.7129 50.1687C38.2042 49.7093 38.7748 49.1738 39.3252 48.7595C39.8034 48.3996 40.597 47.8642 41.5088 47.864C42.4312 47.864 43.2177 48.4095 43.6865 48.7742C44.2239 49.1921 44.7746 49.7319 45.2451 50.1902C45.7497 50.6818 46.174 51.0919 46.5527 51.3865C46.7071 51.5065 46.8179 51.5754 46.8877 51.616C46.9574 51.5755 47.0685 51.5071 47.2236 51.3865C47.6023 51.092 48.0267 50.6817 48.5312 50.1902C49.0018 49.7318 49.5534 49.1921 50.0908 48.7742C50.5596 48.4096 51.3454 47.8642 52.2676 47.864Z" fill="#FFCF06"/>
<path d="M52.2676 54.249C53.19 54.249 53.9765 54.7946 54.4453 55.1592C54.9827 55.5771 55.5334 56.1169 56.0039 56.5752C56.5085 57.0668 56.9328 57.4769 57.3115 57.7715C57.5531 57.9593 57.6852 58.0259 57.7266 58.0469C58.18 58.0336 58.5273 57.9096 58.7236 57.7822C58.7765 57.7479 58.8089 57.7194 58.8291 57.7002C58.8864 56.9241 59.5335 56.3125 60.3242 56.3125C61.1526 56.3126 61.8242 56.9841 61.8242 57.8125C61.8241 58.9686 61.1031 59.8142 60.3564 60.2988C59.5953 60.7928 58.6334 61.0498 57.6475 61.0498C56.7251 61.0498 55.9386 60.5043 55.4697 60.1396C54.9324 59.7217 54.3816 59.182 53.9111 58.7236C53.4066 58.2321 52.9822 57.8219 52.6035 57.5273C52.4483 57.4067 52.3373 57.3373 52.2676 57.2969C52.1978 57.3374 52.0873 57.407 51.9326 57.5273C51.5539 57.8219 51.1296 58.2321 50.625 58.7236C50.1544 59.1821 49.603 59.7216 49.0654 60.1396C48.5965 60.5043 47.8109 61.0497 46.8887 61.0498C45.9663 61.0498 45.1798 60.5043 44.7109 60.1396C44.1736 59.7217 43.6228 59.182 43.1523 58.7236C42.6478 58.2321 42.2234 57.8219 41.8447 57.5273C41.6853 57.4034 41.5723 57.3339 41.5029 57.2939C41.4288 57.3348 41.3059 57.4078 41.1289 57.541C40.7325 57.8394 40.2865 58.2544 39.7617 58.7451C39.2705 59.2044 38.7007 59.7402 38.1504 60.1543C37.6721 60.5142 36.8778 61.0498 35.9658 61.0498C35.0436 61.0496 34.2579 60.5042 33.7891 60.1396C33.2516 59.7216 32.7 59.182 32.2295 58.7236C31.7251 58.2323 31.3014 57.8218 30.9229 57.5273C30.7678 57.4068 30.6567 57.3374 30.5869 57.2969C30.5172 57.3374 30.4069 57.4068 30.252 57.5273C29.8732 57.8219 29.449 58.232 28.9443 58.7236C28.4738 59.182 27.9223 59.7216 27.3848 60.1396C26.9158 60.5043 26.1295 61.0498 25.207 61.0498C24.2848 61.0496 23.4991 60.5043 23.0303 60.1396C22.4928 59.7216 21.9412 59.182 21.4707 58.7236C20.9663 58.2323 20.5426 57.8218 20.1641 57.5273C19.919 57.3367 19.7864 57.2709 19.7471 57.251C19.2946 57.2645 18.948 57.3885 18.752 57.5156C18.6992 57.5498 18.6657 57.5775 18.6455 57.5967C18.589 58.3735 17.9426 58.9863 17.1514 58.9863C16.3229 58.9863 15.6514 58.3148 15.6514 57.4863C15.6514 56.33 16.3723 55.4847 17.1191 55C17.8804 54.506 18.8421 54.249 19.8281 54.249C20.7505 54.249 21.536 54.7945 22.0049 55.1592C22.5423 55.5772 23.0939 56.1168 23.5645 56.5752C24.0691 57.0668 24.4934 57.4769 24.8721 57.7715C25.0266 57.8917 25.1372 57.9604 25.207 58.001C25.2768 57.9605 25.3879 57.8921 25.543 57.7715C25.9217 57.477 26.346 57.0668 26.8506 56.5752C27.3211 56.1168 27.8727 55.5772 28.4102 55.1592C28.879 54.7946 29.6645 54.249 30.5869 54.249L30.7578 54.2549C31.6061 54.316 32.324 54.8172 32.7637 55.1592C33.3012 55.5772 33.8527 56.1168 34.3232 56.5752C34.8279 57.0668 35.2522 57.4769 35.6309 57.7715C35.7891 57.8945 35.9012 57.9638 35.9707 58.0039C36.0447 57.9632 36.168 57.8906 36.3457 57.7568C36.7421 57.4585 37.1882 57.0443 37.7129 56.5537C38.2042 56.0943 38.7748 55.5588 39.3252 55.1445C39.8034 54.7846 40.597 54.2492 41.5088 54.249C42.4312 54.249 43.2177 54.7946 43.6865 55.1592C44.2239 55.5771 44.7746 56.1169 45.2451 56.5752C45.7497 57.0668 46.174 57.4769 46.5527 57.7715C46.7071 57.8915 46.8179 57.9604 46.8877 58.001C46.9574 57.9605 47.0685 57.8921 47.2236 57.7715C47.6023 57.477 48.0267 57.0667 48.5312 56.5752C49.0018 56.1169 49.5534 55.5771 50.0908 55.1592C50.5596 54.7946 51.3454 54.2492 52.2676 54.249Z" fill="#FFCF06"/>
</svg>
