<svg width="51" height="50" viewBox="0 0 51 50" fill="none" xmlns="http://www.w3.org/2000/svg">
<path d="M25.0413 3.99681C13.4352 3.99681 4.04126 13.3906 4.04126 25C4.04126 36.6079 13.4336 46.0033 25.0413 46.0033C36.6474 46.0033 46.0413 36.6095 46.0413 25C46.0413 13.3922 36.649 3.99681 25.0413 3.99681ZM43.5286 23.7646H41.053C40.4514 15.8911 34.1487 9.58754 26.2765 8.98578V6.50995C35.5114 7.12094 42.9177 14.5282 43.5286 23.7646ZM38.5728 26.2355C37.9834 32.7453 32.7854 37.9441 26.2765 38.5336V36.1194H23.806V38.5336C17.2972 37.9441 12.0992 32.7453 11.5098 26.2355H13.9236V23.7646H11.5098C12.0992 17.2548 17.2972 12.056 23.806 11.4665V13.8807H26.2765V11.4665C32.7853 12.056 37.9834 17.2548 38.5728 23.7646H36.1589V26.2355H38.5728ZM23.806 6.50995V8.98578C15.9338 9.58754 9.63114 15.8911 9.02955 23.7646H6.55402C7.16491 14.5282 14.5711 7.12094 23.806 6.50995ZM6.55402 26.2355H9.02955C9.63114 34.1088 15.9338 40.4125 23.806 41.0142V43.49C14.5711 42.879 7.16491 35.4717 6.55402 26.2355ZM26.2765 43.4901V41.0143C34.1487 40.4125 40.4514 34.1088 41.053 26.2355H43.5286C42.9177 35.4717 35.5114 42.879 26.2765 43.4901Z" fill="white"/>
<path d="M17.6296 33.6485H32.4531V16.3517H17.6296V33.6485ZM20.1002 18.8227H29.9825V31.1776H20.1002V18.8227Z" fill="white"/>
<path d="M22.5707 21.2936H27.5118V23.7642H22.5707V21.2936Z" fill="white"/>
<path d="M22.5707 26.2355H27.5118V28.7061H22.5707V26.2355Z" fill="white"/>
</svg>
