<svg width="70" height="71" viewBox="0 0 70 71" fill="none" xmlns="http://www.w3.org/2000/svg">
<path d="M21.4078 53.0062C21.5067 53.0062 21.6055 53.0062 21.6549 52.9568C22.0007 52.8086 22.1984 52.4133 22.0996 52.018C21.9513 51.2769 22.4454 50.5358 23.1866 50.3875C23.5818 50.2887 23.8289 49.8934 23.7301 49.4982C23.7301 49.4488 23.6806 49.3994 23.6806 49.3499C23.5324 49.0041 23.1371 48.8559 22.7913 48.9547C21.2596 49.3499 20.3703 50.8816 20.7161 52.4133C20.7655 52.8086 21.062 53.0062 21.4078 53.0062Z" fill="#4F107D"/>
<path d="M39.6889 21.2806C40.0842 21.2806 40.3806 20.9842 40.3806 20.5889C40.3806 17.7232 43.2463 16.4385 43.3452 16.3891C43.691 16.2409 43.8887 15.8456 43.7404 15.4504C43.5922 15.1045 43.1969 14.9069 42.8017 15.0551C42.6534 15.1045 38.9478 16.735 38.9478 20.5395C38.9972 20.9842 39.2936 21.2806 39.6889 21.2806Z" fill="#4F107D"/>
<path d="M11.3778 39.5157L11.8719 39.2193C12.0696 39.1205 12.119 38.8734 12.0201 38.6758C11.9707 38.6264 11.9213 38.577 11.8719 38.5276L11.3778 38.2311C11.1308 38.0829 10.8837 37.8852 10.7849 37.6382L10.4885 37.1441C10.4391 37.0453 10.2908 36.9465 10.1426 36.9465C9.99438 36.9465 9.89557 37.0453 9.79675 37.1441L9.5003 37.6382C9.35207 37.8852 9.15443 38.1323 8.90739 38.2311L8.4133 38.5276C8.21567 38.6264 8.16626 38.8734 8.26508 39.071L8.4133 39.2193L8.90739 39.5157C9.15443 39.664 9.40148 39.8616 9.5003 40.1086L9.79675 40.6027C9.84616 40.7015 9.99438 40.8004 10.1426 40.8004C10.2908 40.8004 10.3897 40.7015 10.4885 40.6027L10.7849 40.1086C10.9332 39.911 11.1308 39.664 11.3778 39.5157Z" fill="#4F107D"/>
<path d="M10.1426 45.8411L9.35203 45.3964C8.90735 45.1494 8.56149 44.8035 8.31444 44.3588L7.86976 43.5189C7.77094 43.3707 7.62272 43.2719 7.47449 43.2719C7.32627 43.2719 7.12863 43.3707 7.07922 43.5189L6.63454 44.4083C6.3875 44.8529 6.04164 45.1988 5.59696 45.4458L4.75701 45.8905C4.50997 45.9893 4.46056 46.2858 4.55937 46.5328C4.60878 46.6317 4.65819 46.6811 4.75701 46.7305L5.59696 47.1751C6.04164 47.4222 6.3875 47.7681 6.63454 48.2127L7.07922 49.0527C7.17804 49.2009 7.32627 49.2997 7.47449 49.2997C7.62272 49.2997 7.82035 49.2009 7.86976 49.0527L8.31444 48.2127C8.56149 47.7681 8.90735 47.4222 9.35203 47.1751L10.192 46.7305C10.439 46.6316 10.4884 46.3352 10.3896 46.0882C10.2908 45.9893 10.2414 45.8905 10.1426 45.8411Z" fill="#4F107D"/>
<path d="M31.6354 33.6357C30.5979 34.031 29.412 33.9322 28.4239 33.3886C28.078 33.1909 27.6333 33.2898 27.3863 33.6357C27.1886 33.9816 27.2875 34.4263 27.6333 34.6734C28.4239 35.1182 29.3132 35.3653 30.252 35.3653C30.4496 35.3653 30.6473 35.3653 30.8449 35.3158L31.2402 37.0948C31.339 37.4407 31.6354 37.6878 31.9813 37.6878H32.1295C32.5248 37.589 32.7718 37.1937 32.673 36.7983L32.2778 35.0193C32.5742 34.9205 32.8707 34.7723 33.1671 34.624L34.5011 36.0077C34.7976 36.3042 35.2423 36.3042 35.5387 36.0571C35.8352 35.7606 35.8352 35.3158 35.5881 35.0193L34.4517 33.7839C34.6988 33.5863 34.8964 33.3392 35.0941 33.0921L36.8234 33.5369C37.2186 33.6357 37.6139 33.3886 37.7127 32.9933C37.8115 32.5979 37.5645 32.2026 37.1692 32.1038L35.8846 31.8073C35.934 31.7579 35.934 31.7085 35.9834 31.659C36.1316 31.2637 35.934 30.8684 35.5881 30.6707C35.1929 30.5225 34.7976 30.7201 34.6 31.066C34.0071 32.252 32.9201 33.1909 31.6354 33.6357Z" fill="#4F107D"/>
<path d="M62.3183 41.6411C60.6878 38.9726 58.3656 36.5512 55.9445 33.9816C52.1895 30.0283 48.3356 25.9267 47.1004 20.9851C47.7427 17.8719 47.1992 14.6598 46.3592 12.0902C46.0134 11.0524 45.124 10.2618 43.9876 10.1135C43.1971 10.0147 42.4065 10.2618 41.8136 10.7559C40.9737 11.3983 40.0843 12.0407 39.1456 12.5843C38.3056 13.1279 37.4162 13.6715 36.5763 14.3139C36.4775 14.4127 36.3292 14.3633 36.2304 14.2645C34.0564 11.2501 30.8943 9.81701 27.5345 10.4594C26.4475 10.6571 25.4099 11.0524 24.4711 11.6454C24.3229 11.7442 24.1747 11.6948 24.0759 11.6454L15.1823 5.17188C14.2929 4.48005 12.9589 4.6283 12.2672 5.56721C11.6743 6.30845 11.6743 7.34619 12.2672 8.08744L18.8385 16.9824C18.9374 17.1306 18.9374 17.2789 18.8879 17.4271C17.6527 19.8485 14.8858 22.2699 12.1684 22.0228C11.4766 21.9734 10.8343 22.3193 10.5379 22.9123C10.2414 23.6042 10.3896 24.3948 10.8837 24.889C11.6743 25.7785 12.6624 26.5197 13.7494 27.1127C13.8483 27.1621 13.8977 27.3104 13.8483 27.4586V27.508C13.453 28.0516 13.1071 28.6446 12.7613 29.287C11.9213 31.066 11.6249 33.0427 11.9707 35.0193C12.0695 35.7606 12.5636 36.3536 13.3048 36.5512C13.453 36.6006 13.5518 36.6006 13.7 36.6006C14.2435 36.6006 14.7376 36.3041 15.0341 35.8594C15.2811 35.5135 15.5776 35.1676 15.874 34.8711C15.9728 34.8216 16.0716 34.8216 16.1211 34.8711C16.1705 34.9205 16.1705 34.9699 16.1705 34.9699C16.1211 37.0948 17.2575 39.0715 19.135 40.1092C18.1962 42.8271 15.5282 46.8792 14.0459 48.8559C13.1565 50.0913 12.9589 51.722 13.6012 53.1057C9.45087 58.5909 11.3778 64.422 12.0695 66.1022C12.3166 66.7446 12.9589 67.1893 13.6506 67.1893H59.2055C59.5514 67.1893 59.8478 67.0905 60.1443 66.9422C60.6878 66.5963 61.0336 66.0033 60.9842 65.4103C60.9842 65.3115 60.9842 65.2127 60.9842 65.0644C67.6544 56.9107 65.8757 47.3734 62.3183 41.6411ZM35.2423 17.7236C36.3787 16.1917 38.1574 15.0057 39.9361 13.8691C40.9243 13.2761 41.863 12.5843 42.8018 11.8925C43.1477 11.596 43.6418 11.4972 44.037 11.6454C44.4817 11.7937 44.8276 12.1396 44.9758 12.5843C46.1122 16.0929 46.7051 20.8368 43.9382 24.5431C43.6418 24.889 43.3453 25.2349 42.9994 25.5808C42.9006 25.6796 42.8512 25.8279 42.8018 25.9267C42.6536 26.322 42.6536 27.7551 42.703 29.0399C42.8018 30.3248 43.79 34.624 45.6675 36.6995C45.6181 37.9349 45.4205 39.1703 45.124 40.4057C44.1358 44.1119 41.6654 45.6438 36.181 46.731C36.0328 46.7804 35.934 46.8298 35.8352 46.9286C34.5011 48.1146 33.1177 49.2512 31.6354 50.2889C32.6236 48.51 33.2659 46.4345 33.0683 44.8037C33.0189 44.4578 32.7718 44.2107 32.4754 44.1613C32.0801 44.0625 31.6848 44.359 31.586 44.7543V45.0014C31.8331 47.2251 29.9555 51.0302 28.1274 52.4138C27.6333 52.7598 27.0404 53.0068 26.4969 53.2045C26.7439 51.1784 26.2499 49.1524 25.1629 47.4722C23.7794 45.3967 21.7042 43.9637 19.3326 43.3213C20.0244 42.0364 20.5678 40.7022 20.8643 39.2691C21.2596 36.7489 21.6548 34.3275 22.1489 32.0049C22.1983 31.7084 22.4948 31.4613 22.7912 31.4613C23.2853 31.4613 23.73 31.4613 24.1747 31.4119C28.5227 30.8189 30.3508 27.5575 31.586 24.4442C32.0307 23.2582 32.9695 21.9734 33.4141 21.8252C33.8094 21.8252 34.1553 21.4793 34.1553 21.0839C34.1059 19.8979 34.5011 18.7119 35.2423 17.7236ZM31.3884 53.8469C29.5602 54.3905 27.8309 55.0823 26.151 55.9718C26.2499 55.5765 26.3981 55.1812 26.4969 54.7858C27.9298 54.1928 29.3132 53.501 30.6472 52.6609C30.9437 53.0068 31.1907 53.4022 31.3884 53.8469ZM19.8761 27.261C19.0362 27.7057 18.4433 28.5458 18.295 29.5341C18.1962 30.3248 18.1962 31.1648 18.1962 31.9555C18.1962 32.0049 18.1468 32.252 17.9492 32.3014C17.7515 32.3508 17.5045 32.252 17.3563 32.0543C16.1705 30.6707 15.7258 28.7929 16.1211 27.0139C16.4669 25.5808 17.3563 24.889 18.1468 24.1477C19.2832 23.0606 20.5678 21.8746 21.2596 18.1684C21.8525 15.1046 24.57 12.4361 27.7815 11.8431C29.3626 11.5466 32.1295 11.596 34.5011 14.4621V14.561H34.4517C32.6236 13.5232 30.4002 13.375 28.4733 14.1162C25.904 15.1046 24.2735 17.5259 23.8782 20.8368C23.483 23.9006 22.4948 25.9267 19.8761 27.261ZM15.2317 49.7454C16.4175 48.1146 17.5539 46.3851 18.5421 44.6555C20.7161 45.1002 22.643 46.3851 23.8782 48.2629C24.9158 49.8936 25.2617 51.9197 24.817 53.7975C23.5818 54.2423 22.2972 54.5387 20.9631 54.6376C17.7515 54.6376 15.627 53.8469 14.9352 52.4633C14.54 51.5738 14.6388 50.536 15.2317 49.7454ZM16.2199 65.7068C15.5776 64.0267 14.3423 59.8263 16.5657 55.4777C17.8998 55.9224 19.2832 56.1201 20.6667 56.1201C20.0738 57.652 19.8267 59.2827 19.8761 60.864C18.5915 62.2971 17.4551 63.9278 16.6151 65.7068H16.2199ZM59.502 65.6574C59.4526 65.7068 59.4032 65.7562 59.3043 65.7562H18.1962C20.2714 61.9018 24.3229 57.4543 31.9813 55.28C32.6236 57.0096 32.8706 58.8874 32.7224 60.7158C32.673 61.1111 32.9695 61.457 33.3647 61.5064H33.4635C33.8588 61.5064 34.1553 61.2099 34.2047 60.8146C34.4517 57.652 33.6612 54.5387 31.9319 51.9197C33.6118 50.8325 35.1928 49.5971 36.6751 48.2135C42.3077 47.0769 45.1734 45.1991 46.4086 41.3446C46.7051 40.3563 46.9521 39.3185 47.051 38.2314C47.3968 38.5773 47.7427 38.8738 48.0391 39.2197C49.3732 40.5045 50.6578 41.7399 51.4483 43.3707C51.8436 44.3096 52.1401 45.2979 52.2389 46.3356C52.5847 49.8936 51.5472 55.28 50.7072 58.245C50.3613 59.4804 50.9048 60.7652 52.0412 61.3582C52.4365 61.5559 52.8318 61.7041 53.2765 61.7041C53.5235 61.7041 53.7706 61.6547 54.0176 61.5559C53.9188 62.0006 53.82 62.3959 53.7211 62.7419C53.2271 64.5208 55.4999 66.1022 56.7351 64.7185C57.6738 63.7302 58.4644 62.5936 59.1561 61.4076C59.4032 62.7419 59.5514 64.1255 59.6008 65.4597C59.5514 65.5092 59.502 65.608 59.502 65.6574ZM60.1937 59.2333C61.3301 53.1551 59.5514 46.5827 56.4386 42.6788C52.7824 38.182 46.1122 33.3886 44.7287 25.8773C45.1734 25.3831 45.5193 24.8396 45.8651 24.296C50.2625 34.4757 54.5611 34.9699 59.8972 42.0858C63.2076 46.4839 65.8757 55.5765 60.8854 62.8407C60.6878 61.6547 60.4407 60.4193 60.1937 59.2333Z" fill="#4F107D"/>
</svg>
